<svg xmlns="http://www.w3.org/2000/svg" width="1200" height="620" viewBox="0 0 1200 620" role="img" aria-labelledby="title desc">
  <title id="title">Neroli workspace overview placeholder</title>
  <desc id="desc">A conceptual layout showing a sidebar, active session, panes, and review area.</desc>
  <rect width="1200" height="620" rx="28" fill="#0b0f14"/>
  <rect x="50" y="50" width="240" height="520" rx="18" fill="#141b22" stroke="#314150"/>
  <text x="82" y="94" fill="#d8efe7" font-family="Arial" font-size="28" font-weight="700">Workspace</text>
  <rect x="80" y="130" width="180" height="54" rx="10" fill="#22322f"/>
  <text x="106" y="165" fill="#ffffff" font-family="Arial" font-size="20">main</text>
  <rect x="80" y="204" width="180" height="54" rx="10" fill="#2f7d68"/>
  <text x="106" y="239" fill="#ffffff" font-family="Arial" font-size="20">session-a</text>
  <rect x="80" y="278" width="180" height="54" rx="10" fill="#22322f"/>
  <text x="106" y="313" fill="#ffffff" font-family="Arial" font-size="20">session-b</text>
  <rect x="330" y="50" width="500" height="250" rx="18" fill="#111820" stroke="#314150"/>
  <text x="370" y="98" fill="#ffffff" font-family="Arial" font-size="30" font-weight="700">Agent session</text>
  <text x="370" y="145" fill="#a9b8c6" font-family="Arial" font-size="22">Prompt, transcript, terminal output</text>
  <rect x="370" y="185" width="190" height="64" rx="12" fill="#1d2933"/>
  <text x="405" y="225" fill="#d8efe7" font-family="Arial" font-size="20">Claude / Codex</text>
  <rect x="590" y="185" width="180" height="64" rx="12" fill="#1d2933"/>
  <text x="635" y="225" fill="#d8efe7" font-family="Arial" font-size="20">Shell</text>
  <rect x="330" y="330" width="500" height="240" rx="18" fill="#111820" stroke="#314150"/>
  <text x="370" y="380" fill="#ffffff" font-family="Arial" font-size="30" font-weight="700">Attached panes</text>
  <text x="370" y="427" fill="#a9b8c6" font-family="Arial" font-size="22">Browser, simulator, logs, status</text>
  <rect x="870" y="50" width="280" height="520" rx="18" fill="#111820" stroke="#314150"/>
  <text x="910" y="98" fill="#ffffff" font-family="Arial" font-size="30" font-weight="700">Review</text>
  <text x="910" y="145" fill="#a9b8c6" font-family="Arial" font-size="22">Changed files</text>
  <rect x="910" y="190" width="200" height="36" rx="8" fill="#22322f"/>
  <rect x="910" y="246" width="200" height="36" rx="8" fill="#22322f"/>
  <rect x="910" y="302" width="200" height="36" rx="8" fill="#22322f"/>
  <text x="910" y="450" fill="#d8efe7" font-family="Arial" font-size="22">Verify, merge, archive</text>
</svg>
